<?xml version="1.0" encoding="utf-8"?>
<!-- Generator: Adobe Illustrator 19.0.0, SVG Export Plug-In . SVG Version: 6.00 Build 0)  -->
<svg version="1.1" id="Camada_1" xmlns="http://www.w3.org/2000/svg" xmlns:xlink="http://www.w3.org/1999/xlink" x="0px" y="0px"
	 viewBox="35 -35 200 200" style="enable-background:new 35 -35 200 200;" xml:space="preserve">
<style type="text/css">
	.st0{fill:#30BE00;}
</style>
<path class="st0" d="M216.4,9.7l-72.6-42.2c-4.5-2.6-10.6-2.6-15,0L55.5,9.7c-4.8,2.6-8,7.7-8,13.1v84.1c0,5.4,3.5,10.6,8,13.4
	l19.2,10.9c9.3,4.5,12.5,4.5,16.6,4.5c13.8,0,21.4-8.3,21.4-22.7V30.1c0-1.3-0.6-2.9-1.9-2.9h-9.3c-1.3,0-3.8,1.6-3.8,2.9V113
	c0,6.4-5.8,12.8-16.6,7.4l-20.2-11.5c-0.6-0.3-1.3-1.3-1.3-1.9V23.1c0-0.6,1-1.6,1.6-1.9l72.9-41.9c0.6-0.3,1.6-0.3,2.2,0l72,41.9
	c0.6,0.3,0.3,1.3,0.3,1.9v84.1c0,1,0.3,1.6-0.3,1.9l-72.3,41.9c-0.6,0.3-1.3,0.3-1.9,0l-18.6-11.2c-0.6-0.3-1.3-0.3-1.9,0
	c-5.1,2.9-6.1,3.2-10.9,5.1c-1.3,0.3-2.9,1.3,0.6,3.2l24.3,14.4c2.2,1.3,5.1,1.9,7.7,1.9c2.6,0,5.4-0.6,7.7-1.9l72-41.9
	c4.8-2.9,7-7.7,7-13.4V23.1C223.4,17.3,221.2,12.5,216.4,9.7z M159.1,93.8c-19.2,0-23.7-5.4-25-15c-0.3-1-1-2.2-2.2-2.2h-9.3
	c-1.3,0-2.2,1.3-2.2,2.6c0,12.2,6.7,27.2,38.4,27.2c23,0,36.2-9,36.2-25c0-15.7-10.6-19.8-33-22.7c-22.7-2.9-25-4.5-25-9.9
	c0-4.5,1.9-10.2,18.6-10.2c15,0,20.5,3.2,22.7,13.4c0.3,1,1,1.6,1.9,1.6h9.6c0.6,0,1.3-0.3,1.6-0.6c0.3-0.3,0.6-1,0.6-1.6
	C190.5,34,179,25.6,155.6,25.6c-20.8,0-33.3,8.6-33.3,23.4c0,16,12.5,20.5,32.3,22.4c24,2.2,25.6,5.8,25.6,10.6
	C180.9,90.3,174.5,93.8,159.1,93.8z"/>
</svg>
