<?xml version="1.0" encoding="utf-8"?>
<!-- Generator: Adobe Illustrator 19.0.0, SVG Export Plug-In . SVG Version: 6.00 Build 0)  -->
<svg version="1.1" id="Camada_1" xmlns="http://www.w3.org/2000/svg" xmlns:xlink="http://www.w3.org/1999/xlink" x="0px" y="0px"
	 viewBox="-52 -74 194 200" style="enable-background:new -52 -74 194 200;" xml:space="preserve">
<style type="text/css">
	.st0{fill:#30BE00;}
	.st1{fill:#FFFFFF;}
</style>
<g>
	<path class="st0" d="M-52,23v6c0,53.6,43.4,97,97,97h0c53.6,0,97-43.4,97-97v-6c0-53.6-43.4-97-97-97h0C-8.6-74-52-30.6-52,23z"/>
</g>
<g id="Layer_2">
	<g>
		<path class="st1" d="M-7.2,12.3c5.4,0,9.1,1,10.9,3c1.8,2,2.2,5.4,1.3,10.3c-1,5.1-2.9,8.7-5.7,10.9c-2.8,2.2-7.1,3.3-12.9,3.3
			h-8.7l5.3-27.5H-7.2z M-42,67.5h14.3l3.4-17.4h12.2c5.4,0,9.8-0.6,13.3-1.7c3.5-1.1,6.7-3,9.5-5.7c2.4-2.2,4.3-4.6,5.8-7.3
			c1.5-2.7,2.5-5.6,3.2-8.8c1.5-7.8,0.4-13.8-3.4-18.2S6.5,1.9-1.8,1.9h-27.5L-42,67.5z"/>
		<path class="st1" d="M30.3-15.5h14.2L41.1,1.9h12.6c8,0,13.4,1.4,16.5,4.2c3,2.8,3.9,7.3,2.7,13.5l-5.9,30.5H52.5l5.6-29
			c0.6-3.3,0.4-5.6-0.7-6.8c-1.1-1.2-3.5-1.8-7.1-1.8H39l-7.3,37.6H17.5L30.3-15.5z"/>
		<path class="st1" d="M104.4,12.3c5.4,0,9.1,1,10.9,3c1.8,2,2.2,5.4,1.3,10.3c-1,5.1-2.9,8.7-5.7,10.9c-2.8,2.2-7.1,3.3-12.9,3.3
			h-8.7l5.3-27.5H104.4z M69.6,67.5h14.3l3.4-17.4h12.2c5.4,0,9.8-0.6,13.3-1.7c3.5-1.1,6.7-3,9.5-5.7c2.4-2.2,4.3-4.6,5.8-7.3
			c1.5-2.7,2.5-5.6,3.2-8.8c1.5-7.8,0.4-13.8-3.4-18.2c-3.8-4.3-9.8-6.5-18.1-6.5H82.3L69.6,67.5z"/>
	</g>
</g>
</svg>
