<?xml version="1.0" encoding="utf-8"?>
<!-- Generator: Adobe Illustrator 19.0.0, SVG Export Plug-In . SVG Version: 6.00 Build 0)  -->
<svg version="1.1" id="Camada_1" xmlns="http://www.w3.org/2000/svg" xmlns:xlink="http://www.w3.org/1999/xlink" x="0px" y="0px"
	 viewBox="-52 -74 194 200" style="enable-background:new -52 -74 194 200;" xml:space="preserve">
<style type="text/css">
	.st0{fill:#FEFBFB;}
	.st1{fill:#30BE00;}
</style>
<rect x="-3" y="-13" class="st0" width="137" height="130"/>
<path class="st1" d="M-52-74v200h194V-74H-52z M53.6,82c0,19.5-11.1,28.3-27.2,28.3c-14.6,0-23-7.8-27.3-17.2l14.8-9.3
	c2.9,5.2,5.5,9.6,11.7,9.6c6,0,9.8-2.4,9.8-11.8V17.8h18.2V82L53.6,82z M96.7,110.3c-16.9,0-27.9-8.3-33.2-19.2l14.8-8.8
	c3.9,6.5,9,11.4,18,11.4c7.5,0,12.3-3.9,12.3-9.3c0-6.4-5-8.7-13.3-12.4l-4.5-2.1c-13.2-5.8-21.9-13-21.9-28.3
	c0-14.1,10.4-24.8,26.7-24.8c11.6,0,19.9,4.2,25.9,15l-14.2,9.4c-3.1-5.7-6.5-8.1-11.7-8.1c-5.3,0-8.7,3.5-8.7,8.1
	c0,5.7,3.4,7.9,11.2,11.4l4.5,2.1c15.5,6.8,24.2,13.8,24.2,29.5C126.9,101,114,110.3,96.7,110.3L96.7,110.3z"/>
</svg>
