<?xml version="1.0" encoding="utf-8"?>
<!-- Generator: Adobe Illustrator 19.0.0, SVG Export Plug-In . SVG Version: 6.00 Build 0)  -->
<svg version="1.1" id="Camada_1" xmlns="http://www.w3.org/2000/svg" xmlns:xlink="http://www.w3.org/1999/xlink" x="0px" y="0px"
	 viewBox="-49 -74 200 200" style="enable-background:new -49 -74 200 200;" xml:space="preserve">
<style type="text/css">
	.st0{fill:#30BE00;}
	.st1{clip-path:url(#SVGID_2_);}
	.st2{fill:#FEFBFB;}
	.st3{clip-path:url(#SVGID_4_);}
</style>
<path class="st0" d="M86.1-17.7l-0.6,3.3c-1,6.2-0.6,7.9,2,10.2L90.1-2L87.4,9.8c-1.6,7.1-3.5,13-4.8,14.9c-1.1,1.7-2.3,4.1-2.6,5.5
	c-0.4,1.6-1.9,3.2-4.2,4.6c-2,1.2-6,4.2-8.8,6.7c-2.3,2-3.8,3.3-4.6,3.8l-2.8,2.2c-0.7,1-1.2,2.2-1.6,3.4c-0.2,0.9-0.1,1.5,0.2,1.9
	c0.3,0.4,0.8,0.7,1.4,0.9c0.8,0.2,1.6,0.2,2.4,0.2c1.8-0.1,3.5-0.4,5.3-0.9c0.6-0.2,1-0.3,1.4-0.4c0.6-0.8,2-2.2,4.6-4.7
	c6.7-6.6,9.3-10.2,6.6-9.3c-1,0.3-0.5-0.5,1.1-2.3c3.5-3.4,5.6-8.6,9.8-25c3.4-12.9,3.4-13.1,5.8-13.1c1.2,0,4.4,0.2,4.4,0.2v-16.1
	h-7.5H86.1z M118.1,8.7c-0.5,0-1.4,0.8-1.9,1.7c-1,1.6,0.2,2.6,14.7,11.6c8.6,5.5,15.6,10.1,15.4,10.5c-0.2,0.3-7.2,4.8-15.7,10.1
	c-15.3,9.5-15.4,9.6-14,11.6c1.8,2.3,0,3.1,19.9-9.4l14.5-9.3v-7l-16.1-10C126.1,13.2,118.6,8.8,118.1,8.7z M-15.9,9.7
	c-0.4,0-8,4.5-16.8,9.9l-16.3,10v7l16.2,10.1c9,5.5,16.6,10.1,16.9,10.1c0.4,0,1.1-0.8,1.8-1.8c1.1-1.7,0.2-2.4-14.7-11.8
	C-43,34.3-44.5,33.1-43.1,32.1c0.9-0.6,7.6-4.8,14.8-9.3c16.5-10.1,15.6-9.4,14.3-11.6C-14.5,10.4-15.4,9.6-15.9,9.7L-15.9,9.7z
	 M56.4,9.9c-2.4,0-7.7,3.7-23.3,16.5c-0.7,1.6-0.7,2.7-0.4,3.4c0.2,0.5,0.6,0.8,1.1,1.1c0.5,0.3,1.2,0.4,1.9,0.5
	c1.4,0.1,3.1-0.1,4.5-0.4l0.9-0.2c0.3-0.4,0.7-0.8,1.2-1c1-0.5,5-4.2,9.1-8.2c7.1-7.2,8.8-10.5,5.9-11.6C57,9.9,56.7,9.9,56.4,9.9
	L56.4,9.9z M74.7,14.9c-2.1,0.1-6,2.5-12.6,7.8c-3.3,2.7-5.4,4.1-6.5,4.4l-4.4,3.5c-1.6,3-1.9,4.9-1.5,5.9c0.1,0.3,0.3,0.5,0.5,0.7
	c0.2,0.2,0.4,0.3,0.7,0.4c0.6,0.3,1.3,0.4,2,0.4c1.6,0,3.3-0.3,4.8-0.7c0.8-0.2,1.6-0.5,2.4-0.8l0.2-0.1l0.4-0.2
	c0.8-1.1,2.8-3.1,5.2-5.4c7.6-7.3,11.5-12.5,10.7-14.5C76.3,15.4,75.7,14.9,74.7,14.9L74.7,14.9z M54.5,23.9c-0.6,0.1-2,1.1-4.5,3.3
	c-3.6,3.2-7.5,5-8.9,4.2c-0.3,0.1-0.6,0.1-1,0.2c-1.4,0.3-3.1,0.5-4.7,0.4c-0.7,0-1.4-0.2-2.1-0.5c-0.6-0.3-1.1-0.8-1.4-1.4
	c-0.3-0.8-0.3-1.7,0-2.9l-5.4,4.4L14.4,41.8v16.4l40.2-31.6c0-0.3,0-0.7,0.1-1C55,24.4,55,23.9,54.5,23.9L54.5,23.9z M71.8,29.2
	c-0.6,0-1.6,0.9-3.3,2.6c-2.2,2.4-5.7,4.6-7.5,5.1l-0.3,0.2c-0.3,0.1-0.6,0.2-0.9,0.3c-0.5,0.2-1.2,0.4-1.9,0.6
	c-1.5,0.4-3.4,0.8-5,0.7c-0.8,0-1.6-0.2-2.3-0.4c-0.7-0.3-1.2-0.8-1.5-1.5c-0.5-1.2-0.3-2.8,0.8-5.1L14.4,59.6v10H30l33-25.9
	c0.9-0.9,2.2-2.3,3.9-3.9c4.7-4.3,5.7-5.8,5.7-8C72.6,30.1,72.4,29.2,71.8,29.2L71.8,29.2z M79.7,45.5l-2.8,2.8
	c-1.6,1.5-4.4,3.3-6.3,4.1l-0.4,0.2l0,0L70,52.7c-0.1,0.1-0.1,0.1-0.2,0.1c-0.8,0.3-1.6,0.6-2.3,0.8c-1.8,0.5-3.6,0.8-5.4,1
	c-0.9,0.1-1.7,0-2.6-0.2c-0.7-0.2-1.4-0.6-1.8-1.2c-0.4-0.6-0.5-1.4-0.3-2.5c0.2-0.7,0.4-1.4,0.8-2.1l-26.6,21H67l4.2-4.8
	C77,58,79.7,53.2,79.7,49V45.5z"/>
<g>
	<defs>
		<rect id="SVGID_1_" x="-49" y="-74" width="40" height="200"/>
	</defs>
	<clipPath id="SVGID_2_">
		<use xlink:href="#SVGID_1_"  style="overflow:visible;"/>
	</clipPath>
	<g class="st1">
		<path class="st2" d="M86.1-17.7l-0.6,3.3c-1,6.2-0.6,7.9,2,10.2L90.1-2L87.4,9.8c-1.6,7.1-3.5,13-4.8,14.9
			c-1.1,1.7-2.3,4.1-2.6,5.5c-0.4,1.6-1.9,3.2-4.2,4.6c-2,1.2-6,4.2-8.8,6.7c-2.3,2-3.8,3.3-4.6,3.8l-2.8,2.2
			c-0.7,1-1.2,2.2-1.6,3.4c-0.2,0.9-0.1,1.5,0.2,1.9c0.3,0.4,0.8,0.7,1.4,0.9c0.8,0.2,1.6,0.2,2.4,0.2c1.8-0.1,3.5-0.4,5.3-0.9
			c0.6-0.2,1-0.3,1.4-0.4c0.6-0.8,2-2.2,4.6-4.7c6.7-6.6,9.3-10.2,6.6-9.3c-1,0.3-0.5-0.5,1.1-2.3c3.5-3.4,5.6-8.6,9.8-25
			c3.4-12.9,3.4-13.1,5.8-13.1c1.2,0,4.4,0.2,4.4,0.2v-16.1h-7.5H86.1z M118.1,8.7c-0.5,0-1.4,0.8-1.9,1.7c-1,1.6,0.2,2.6,14.7,11.6
			c8.6,5.5,15.6,10.1,15.4,10.5c-0.2,0.3-7.2,4.8-15.7,10.1c-15.3,9.5-15.4,9.6-14,11.6c1.8,2.3,0,3.1,19.9-9.4l14.5-9.3v-7
			l-16.1-10C126.1,13.2,118.6,8.8,118.1,8.7z M-15.9,9.7c-0.4,0-8,4.5-16.8,9.9l-16.3,10v7l16.2,10.1c9,5.5,16.6,10.1,16.9,10.1
			c0.4,0,1.1-0.8,1.8-1.8c1.1-1.7,0.2-2.4-14.7-11.8C-43,34.3-44.5,33.1-43.1,32.1c0.9-0.6,7.6-4.8,14.8-9.3
			c16.5-10.1,15.6-9.4,14.3-11.6C-14.5,10.4-15.4,9.6-15.9,9.7L-15.9,9.7z M56.4,9.9c-2.4,0-7.7,3.7-23.3,16.5
			c-0.7,1.6-0.7,2.7-0.4,3.4c0.2,0.5,0.6,0.8,1.1,1.1c0.5,0.3,1.2,0.4,1.9,0.5c1.4,0.1,3.1-0.1,4.5-0.4l0.9-0.2
			c0.3-0.4,0.7-0.8,1.2-1c1-0.5,5-4.2,9.1-8.2c7.1-7.2,8.8-10.5,5.9-11.6C57,9.9,56.7,9.9,56.4,9.9L56.4,9.9z M74.7,14.9
			c-2.1,0.1-6,2.5-12.6,7.8c-3.3,2.7-5.4,4.1-6.5,4.4l-4.4,3.5c-1.6,3-1.9,4.9-1.5,5.9c0.1,0.3,0.3,0.5,0.5,0.7
			c0.2,0.2,0.4,0.3,0.7,0.4c0.6,0.3,1.3,0.4,2,0.4c1.6,0,3.3-0.3,4.8-0.7c0.8-0.2,1.6-0.5,2.4-0.8l0.2-0.1l0.4-0.2
			c0.8-1.1,2.8-3.1,5.2-5.4c7.6-7.3,11.5-12.5,10.7-14.5C76.3,15.4,75.7,14.9,74.7,14.9L74.7,14.9z M54.5,23.9
			c-0.6,0.1-2,1.1-4.5,3.3c-3.6,3.2-7.5,5-8.9,4.2c-0.3,0.1-0.6,0.1-1,0.2c-1.4,0.3-3.1,0.5-4.7,0.4c-0.7,0-1.4-0.2-2.1-0.5
			c-0.6-0.3-1.1-0.8-1.4-1.4c-0.3-0.8-0.3-1.7,0-2.9l-5.4,4.4L14.4,41.8v16.4l40.2-31.6c0-0.3,0-0.7,0.1-1
			C55,24.4,55,23.9,54.5,23.9L54.5,23.9z M71.8,29.2c-0.6,0-1.6,0.9-3.3,2.6c-2.2,2.4-5.7,4.6-7.5,5.1l-0.3,0.2
			c-0.3,0.1-0.6,0.2-0.9,0.3c-0.5,0.2-1.2,0.4-1.9,0.6c-1.5,0.4-3.4,0.8-5,0.7c-0.8,0-1.6-0.2-2.3-0.4c-0.7-0.3-1.2-0.8-1.5-1.5
			c-0.5-1.2-0.3-2.8,0.8-5.1L14.4,59.6v10H30l33-25.9c0.9-0.9,2.2-2.3,3.9-3.9c4.7-4.3,5.7-5.8,5.7-8C72.6,30.1,72.4,29.2,71.8,29.2
			L71.8,29.2z M79.7,45.5l-2.8,2.8c-1.6,1.5-4.4,3.3-6.3,4.1l-0.4,0.2l0,0L70,52.7c-0.1,0.1-0.1,0.1-0.2,0.1
			c-0.8,0.3-1.6,0.6-2.3,0.8c-1.8,0.5-3.6,0.8-5.4,1c-0.9,0.1-1.7,0-2.6-0.2c-0.7-0.2-1.4-0.6-1.8-1.2c-0.4-0.6-0.5-1.4-0.3-2.5
			c0.2-0.7,0.4-1.4,0.8-2.1l-26.6,21H67l4.2-4.8C77,58,79.7,53.2,79.7,49V45.5z"/>
	</g>
</g>
<g>
	<defs>
		<rect id="SVGID_3_" x="112" y="-74" width="39" height="200"/>
	</defs>
	<clipPath id="SVGID_4_">
		<use xlink:href="#SVGID_3_"  style="overflow:visible;"/>
	</clipPath>
	<g class="st3">
		<path class="st2" d="M86.1-17.7l-0.6,3.3c-1,6.2-0.6,7.9,2,10.2L90.1-2L87.4,9.8c-1.6,7.1-3.5,13-4.8,14.9
			c-1.1,1.7-2.3,4.1-2.6,5.5c-0.4,1.6-1.9,3.2-4.2,4.6c-2,1.2-6,4.2-8.8,6.7c-2.3,2-3.8,3.3-4.6,3.8l-2.8,2.2
			c-0.7,1-1.2,2.2-1.6,3.4c-0.2,0.9-0.1,1.5,0.2,1.9c0.3,0.4,0.8,0.7,1.4,0.9c0.8,0.2,1.6,0.2,2.4,0.2c1.8-0.1,3.5-0.4,5.3-0.9
			c0.6-0.2,1-0.3,1.4-0.4c0.6-0.8,2-2.2,4.6-4.7c6.7-6.6,9.3-10.2,6.6-9.3c-1,0.3-0.5-0.5,1.1-2.3c3.5-3.4,5.6-8.6,9.8-25
			c3.4-12.9,3.4-13.1,5.8-13.1c1.2,0,4.4,0.2,4.4,0.2v-16.1h-7.5H86.1z M118.1,8.7c-0.5,0-1.4,0.8-1.9,1.7c-1,1.6,0.2,2.6,14.7,11.6
			c8.6,5.5,15.6,10.1,15.4,10.5c-0.2,0.3-7.2,4.8-15.7,10.1c-15.3,9.5-15.4,9.6-14,11.6c1.8,2.3,0,3.1,19.9-9.4l14.5-9.3v-7
			l-16.1-10C126.1,13.2,118.6,8.8,118.1,8.7z M-15.9,9.7c-0.4,0-8,4.5-16.8,9.9l-16.3,10v7l16.2,10.1c9,5.5,16.6,10.1,16.9,10.1
			c0.4,0,1.1-0.8,1.8-1.8c1.1-1.7,0.2-2.4-14.7-11.8C-43,34.3-44.5,33.1-43.1,32.1c0.9-0.6,7.6-4.8,14.8-9.3
			c16.5-10.1,15.6-9.4,14.3-11.6C-14.5,10.4-15.4,9.6-15.9,9.7L-15.9,9.7z M56.4,9.9c-2.4,0-7.7,3.7-23.3,16.5
			c-0.7,1.6-0.7,2.7-0.4,3.4c0.2,0.5,0.6,0.8,1.1,1.1c0.5,0.3,1.2,0.4,1.9,0.5c1.4,0.1,3.1-0.1,4.5-0.4l0.9-0.2
			c0.3-0.4,0.7-0.8,1.2-1c1-0.5,5-4.2,9.1-8.2c7.1-7.2,8.8-10.5,5.9-11.6C57,9.9,56.7,9.9,56.4,9.9L56.4,9.9z M74.7,14.9
			c-2.1,0.1-6,2.5-12.6,7.8c-3.3,2.7-5.4,4.1-6.5,4.4l-4.4,3.5c-1.6,3-1.9,4.9-1.5,5.9c0.1,0.3,0.3,0.5,0.5,0.7
			c0.2,0.2,0.4,0.3,0.7,0.4c0.6,0.3,1.3,0.4,2,0.4c1.6,0,3.3-0.3,4.8-0.7c0.8-0.2,1.6-0.5,2.4-0.8l0.2-0.1l0.4-0.2
			c0.8-1.1,2.8-3.1,5.2-5.4c7.6-7.3,11.5-12.5,10.7-14.5C76.3,15.4,75.7,14.9,74.7,14.9L74.7,14.9z M54.5,23.9
			c-0.6,0.1-2,1.1-4.5,3.3c-3.6,3.2-7.5,5-8.9,4.2c-0.3,0.1-0.6,0.1-1,0.2c-1.4,0.3-3.1,0.5-4.7,0.4c-0.7,0-1.4-0.2-2.1-0.5
			c-0.6-0.3-1.1-0.8-1.4-1.4c-0.3-0.8-0.3-1.7,0-2.9l-5.4,4.4L14.4,41.8v16.4l40.2-31.6c0-0.3,0-0.7,0.1-1
			C55,24.4,55,23.9,54.5,23.9L54.5,23.9z M71.8,29.2c-0.6,0-1.6,0.9-3.3,2.6c-2.2,2.4-5.7,4.6-7.5,5.1l-0.3,0.2
			c-0.3,0.1-0.6,0.2-0.9,0.3c-0.5,0.2-1.2,0.4-1.9,0.6c-1.5,0.4-3.4,0.8-5,0.7c-0.8,0-1.6-0.2-2.3-0.4c-0.7-0.3-1.2-0.8-1.5-1.5
			c-0.5-1.2-0.3-2.8,0.8-5.1L14.4,59.6v10H30l33-25.9c0.9-0.9,2.2-2.3,3.9-3.9c4.7-4.3,5.7-5.8,5.7-8C72.6,30.1,72.4,29.2,71.8,29.2
			L71.8,29.2z M79.7,45.5l-2.8,2.8c-1.6,1.5-4.4,3.3-6.3,4.1l-0.4,0.2l0,0L70,52.7c-0.1,0.1-0.1,0.1-0.2,0.1
			c-0.8,0.3-1.6,0.6-2.3,0.8c-1.8,0.5-3.6,0.8-5.4,1c-0.9,0.1-1.7,0-2.6-0.2c-0.7-0.2-1.4-0.6-1.8-1.2c-0.4-0.6-0.5-1.4-0.3-2.5
			c0.2-0.7,0.4-1.4,0.8-2.1l-26.6,21H67l4.2-4.8C77,58,79.7,53.2,79.7,49V45.5z"/>
	</g>
</g>
</svg>
