<?xml version="1.0" encoding="utf-8"?>
<!-- Generator: Adobe Illustrator 19.0.0, SVG Export Plug-In . SVG Version: 6.00 Build 0)  -->
<svg version="1.1" id="Camada_1" xmlns="http://www.w3.org/2000/svg" xmlns:xlink="http://www.w3.org/1999/xlink" x="0px" y="0px"
	 viewBox="-49 -74 200 200" style="enable-background:new -49 -74 200 200;" xml:space="preserve">
<style type="text/css">
	.st0{clip-path:url(#SVGID_2_);}
	.st1{fill:#FEFBFB;}
	.st2{fill:#30BE00;}
</style>
<g>
	<defs>
		<rect id="SVGID_1_" x="-49" y="-74" width="200" height="200"/>
	</defs>
	<clipPath id="SVGID_2_">
		<use xlink:href="#SVGID_1_"  style="overflow:visible;"/>
	</clipPath>
	<g class="st0">
		<path class="st1" d="M62.5,69.5l11-12.5l2.5,4c-0.7,2.5-2.1,7.6-2.5,8s-3.8,2.8-5.5,4l-6-1L62.5,69.5z"/>
		<path class="st1" d="M92.5,57.5l6.5-9l3.5,1L104,53l-2.5,9l-6,4L91,65.5l-1-2L92.5,57.5z"/>
		<path class="st2" d="M45.3,64.4C45.2,64.6,45.1,64.7,45.3,64.4L45.3,64.4z M123.2,37.2c-6.3,0-12.5,1.4-18.1,4.2
			c-1.8-3.7-3.8-7-4.1-9.4c-0.4-2.8-0.8-4.5-0.3-7.9c0.4-3.4,2.4-8.2,2.4-8.5c0-0.3-0.4-2.1-4.5-2.1c-4,0-7.5,0.8-7.9,1.8
			c-0.7,1.9-1.3,3.9-1.7,6c-0.7,3.7-8.1,16.7-12.2,23.5c-1.4-2.7-2.5-5-2.8-6.9c-0.4-2.8-0.8-4.5-0.3-7.9c0.4-3.4,2.4-8.2,2.4-8.5
			c0-0.3-0.4-2.1-4.5-2.1c-4,0-7.5,0.8-7.9,1.8c-0.4,1.1-0.8,3.6-1.7,6c-0.8,2.4-10.6,24.2-13.1,29.8c-1.3,2.9-2.4,5.2-3.3,6.8
			c-0.1,0.3-0.2,0.4-0.3,0.5c0.1-0.2,0.2-0.3,0.2-0.3c-0.7,1.3-1.1,2.1-1.1,2.1v0c-0.5,1-1.1,1.9-1.4,1.9c-0.2,0-0.6-2.6,0.1-6.2
			c1.5-7.6,4.9-19.3,4.9-19.7c0-0.2,0.7-2.3-2.3-3.3c-2.8-1-3.9,0.7-4.1,0.7s-0.4,0.6-0.4,0.6S44.3,27,35.1,27
			c-5.8,0-13.8,6.3-17.7,12c-2.5,1.3-7.8,4.3-13.4,7.3l-6.5,3.6c-0.2-0.2-0.3-0.3-0.4-0.5c-11.2-11.9-31.8-20.4-31-36.4
			c0.3-5.8,2.3-21.2,39.7-39.8C36.4-42,60.9-37.8,65.1-28.5C71.2-15.2,52,9.5,20.2,13C8.1,14.4,1.7,9.7,0.1,7.9
			C-1.5,6.1-1.8,6-2.4,6.3c-1,0.6-0.4,2.2,0,3.2c0.9,2.5,4.8,6.8,11.5,9c5.8,1.9,20.1,3,37.2-3.7c19.3-7.4,34.3-28.2,29.9-45.5
			c-4.5-17.6-33.7-23.4-61.3-13.6c-16.5,5.8-34.3,15-47.1,27C-47.4-3-49.8,9.4-48.8,14.6C-45.2,33-19.9,45-9.7,53.9l-1.4,0.8
			c-5.1,2.5-24.4,12.7-29.3,23.3c-5.5,12.1,0.9,20.8,5.1,22c13.1,3.6,26.4-2.9,33.6-13.6c7.2-10.7,6.3-24.7,3-31.1
			c0-0.1-0.1-0.2-0.1-0.3c3.7-2.2,7.5-4.4,11.3-6.5c-1.3,3.4-2.2,7.4-2.6,13.3c-0.6,6.9,2.3,15.8,6,19.3c1.6,1.5,3.6,1.6,4.8,1.6
			c4.3,0,6.3-3.6,8.4-7.8c2.7-5.2,5-11.2,5-11.2S31.1,80,39.2,80c2.9,0,5.9-3.8,7.2-5.7v0c0,0,0.1-0.1,0.2-0.4
			c0.3-0.5,0.5-0.8,0.5-0.8v-0.1c1.2-2,3.8-6.7,7.7-14.4c5.1-9.9,9.9-22.3,9.9-22.3c0.5,2.7,1.1,5.4,1.9,8.1c0.9,3,2.7,6.2,4.2,9.4
			c-1.2,1.6-1.9,2.6-1.9,2.6c0,0,0,0,0,0.1c-0.9,1.3-2,2.6-3.1,3.9c-4,4.8-8.8,10.2-9.4,11.8c-0.8,1.8-0.6,3.2,0.9,4.3
			c1.1,0.8,2.9,0.9,4.9,0.8c3.6-0.3,6.1-1.1,7.3-1.7c2.2-0.8,4.4-1.9,6.3-3.3c3.9-2.9,6.3-7,6.1-12.4c-0.1-3-1.1-6-2.3-8.8
			c0.3-0.5,0.7-1,1.1-1.6c4.1-6.1,7.7-12.4,11-18.9c0.5,2.7,1.1,5.4,1.9,8.1c0.8,2.5,2.2,5.3,3.6,8c-5.8,4.7-9.4,10.2-10.6,13.8
			c-2.3,6.7-0.5,9.7,2.9,10.3c1.5,0.3,3.7-0.4,5.3-1.1c2.4-0.8,4.7-2,6.7-3.5c3.9-2.9,7.7-6.9,7.4-12.4c-0.1-2.5-0.8-4.9-1.7-7.3
			c4.9-2.1,11.3-3.2,19.4-2.3c17.4,2,20.8,12.9,20.1,17.4c-0.7,4.5-4.3,7.1-5.5,7.8c-1.2,0.8-1.6,1-1.5,1.6c0.2,0.8,0.7,0.8,1.8,0.6
			c1.4-0.3,9.1-3.7,9.5-12.1C151.5,48.8,141.3,37.1,123.2,37.2L123.2,37.2z M-10.9,82.4c-5.8,6.3-13.8,8.7-17.3,6.7
			c-3.7-2.2-2.3-11.4,4.8-18.1c4.3-4.1,9.9-7.8,13.6-10.1c0.8-0.5,2.1-1.3,3.6-2.2c0.1-0.1,0.2-0.2,0.4-0.2c0.3-0.2,0.6-0.3,0.9-0.5
			C-2.4,67.5-4.9,75.8-10.9,82.4L-10.9,82.4z M31,53.9c-2,4.9-6.2,17.4-8.8,16.8c-2.2-0.6-3.5-10.1-0.4-19.5
			c1.6-4.7,4.9-10.3,6.8-12.5c3.2-3.5,6.6-4.7,7.4-3.3C37.2,37.2,32.3,50.8,31,53.9z M65.7,70.4c-0.8,0.4-1.6,0.7-2,0.5
			c-0.3-0.2,0.3-0.8,0.3-0.8s4.3-4.7,6.1-6.8c1-1.3,2.2-2.7,3.4-4.3c0,0.2,0,0.3,0,0.5C73.5,65.2,68.2,68.9,65.7,70.4L65.7,70.4z
			 M92.5,64.3c-0.6-0.4-0.5-1.9,1.6-6.5c0.8-1.8,2.7-4.8,5.9-7.7c0.4,1.1,0.6,2.2,0.6,3.4C100.5,60.6,95.5,63.3,92.5,64.3L92.5,64.3
			z"/>
	</g>
</g>
</svg>
