<?xml version="1.0" encoding="utf-8"?>
<!-- Generator: Adobe Illustrator 19.0.0, SVG Export Plug-In . SVG Version: 6.00 Build 0)  -->
<svg version="1.1" id="Camada_1" xmlns="http://www.w3.org/2000/svg" xmlns:xlink="http://www.w3.org/1999/xlink" x="0px" y="0px"
	 viewBox="-49 -74 200 200" style="enable-background:new -49 -74 200 200;" xml:space="preserve">
<style type="text/css">
	.st0{fill:#30BE00;}
</style>
<path class="st0" d="M51,42c4.9,0,9.7-2,13.2-5.5c3.5-3.5,5.5-8.2,5.5-13.2c0-4.9-2-9.7-5.5-13.2C60.6,6.7,55.9,4.8,51,4.8
	c-4.9,0-9.7,2-13.2,5.5c-3.5,3.5-5.5,8.2-5.5,13.2c0,4.9,2,9.7,5.5,13.2C41.3,40.1,46,42,51,42L51,42z"/>
<path class="st0" d="M151,23.4c0-13.3-16.6-25.8-42-33.6c5.9-25.9,3.3-46.6-8.2-53.2c-2.8-1.6-5.9-2.3-9.1-2.3v9.1
	c1.9,0,3.4,0.4,4.6,1.1c5.5,3.2,7.9,15.3,6.1,30.9c-0.4,3.8-1.2,7.9-2.1,12c-8.5-2.1-17.2-3.5-25.9-4.4c-5.2-7.2-10.9-14-17-20.4
	c13.3-12.4,25.8-19.1,34.2-19.1v-9.1c-11.2,0-25.9,8-40.7,21.8C36.1-57.6,21.4-65.5,10.2-65.5v9.1c8.4,0,21,6.7,34.3,19
	c-5.7,6-11.4,12.8-16.8,20.3c-8.7,0.9-17.4,2.4-25.9,4.5c-0.9-4.1-1.6-8-2.1-11.8C-2.4-40,0-52.1,5.5-55.3c1.2-0.7,2.8-1.1,4.7-1.1
	v-9.1c-3.4,0-6.5,0.7-9.2,2.3c-11.5,6.6-14,27.2-8.1,53C-32.5-2.3-49,10.2-49,23.4C-49,36.7-32.4,49.2-7,57
	c-5.9,25.9-3.3,46.6,8.2,53.2c2.6,1.5,5.8,2.3,9.2,2.3c11.2,0,25.9-8,40.7-21.8c14.8,13.8,29.5,21.7,40.7,21.7
	c3.2,0.1,6.4-0.7,9.2-2.3c11.5-6.6,14-27.2,8.1-53C134.5,49.2,151,36.6,151,23.4z M97.9-3.8C96.3,1.7,94.5,7,92.4,12.3
	C89,5.7,85.3-0.8,81.2-7C87-6.2,92.6-5.1,97.9-3.8L97.9-3.8z M79.3,39.6c-3.2,5.5-6.4,10.7-9.8,15.6c-12.2,1.1-24.5,1.1-36.8,0
	c-7-10-13.2-20.6-18.3-31.7C19.5,12.4,25.6,1.8,32.6-8.3c12.2-1.1,24.5-1.1,36.8-0.1c3.4,4.9,6.7,10,9.9,15.5
	c3.1,5.3,5.9,10.8,8.5,16.2C85.1,28.9,82.3,34.3,79.3,39.6L79.3,39.6z M92.4,34.3c2.2,5.5,4.1,10.9,5.6,16.2
	c-5.3,1.3-11,2.4-16.8,3.3C85.3,47.5,89,41,92.4,34.3L92.4,34.3z M51.1,77.8c-3.8-3.9-7.6-8.3-11.3-13c3.7,0.2,7.4,0.3,11.2,0.3
	c3.8,0,7.6-0.1,11.3-0.3C58.6,69.6,54.8,73.9,51.1,77.8z M20.8,53.8C15.1,53,9.6,51.9,4,50.6c1.5-5.3,3.4-10.7,5.5-16.1
	c1.7,3.3,3.4,6.5,5.4,9.8C16.8,47.5,18.8,50.7,20.8,53.8z M50.9-31c3.8,3.9,7.6,8.3,11.3,13c-3.7-0.2-7.4-0.3-11.2-0.3
	c-3.8,0-7.6,0.1-11.3,0.3C43.3-22.7,47.1-27.1,50.9-31z M20.7-7c-4,6.3-7.8,12.8-11.2,19.4C7.4,7.1,5.5,1.7,3.9-3.8
	C9.3-5.1,14.9-6.2,20.7-7z M-16.2,44C-30.6,37.9-40,29.8-40,23.4c0-6.4,9.3-14.5,23.8-20.6c3.5-1.5,7.3-2.9,11.3-4.1
	c2.3,8,5.4,16.3,9.2,24.8c-3.6,8-6.6,16.3-9,24.7C-8.6,47-12.4,45.6-16.2,44L-16.2,44z M5.8,102.3c-5.5-3.2-8-15.3-6.1-30.9
	c0.5-3.8,1.2-7.9,2.1-12c8,2,16.7,3.5,25.9,4.5c5.2,7.2,10.9,14,17,20.4c-13.3,12.4-25.8,19.1-34.3,19.1
	C8.7,103.4,7.2,103,5.8,102.3L5.8,102.3z M102.4,71.2c1.9,15.6-0.4,27.7-6,30.9c-1.2,0.7-2.8,1.1-4.7,1.1c-8.4,0-21-6.7-34.3-19
	c5.7-6,11.4-12.8,16.8-20.3c8.7-0.9,17.4-2.4,25.9-4.5C101.3,63.5,102,67.4,102.4,71.2L102.4,71.2z M118.1,44
	c-3.5,1.5-7.3,2.9-11.3,4.1c-2.5-8.5-5.6-16.8-9.2-24.8c3.8-8.5,6.8-16.8,9-24.7c4,1.3,7.9,2.6,11.5,4.2
	c14.4,6.2,23.8,14.2,23.8,20.6C141.9,29.8,132.6,37.9,118.1,44L118.1,44z"/>
</svg>
