<?xml version="1.0" encoding="utf-8"?>
<!-- Generator: Adobe Illustrator 19.0.0, SVG Export Plug-In . SVG Version: 6.00 Build 0)  -->
<svg version="1.1" id="Camada_1" xmlns="http://www.w3.org/2000/svg" xmlns:xlink="http://www.w3.org/1999/xlink" x="0px" y="0px"
	 viewBox="0 0 300 53" style="enable-background:new 0 0 300 53;" xml:space="preserve">
<style type="text/css">
	.st0{fill:#FFFFFF;}
	.st1{fill:#30BE00;}
</style>
<g id="XMLID_20_">
	<path id="XMLID_150_" class="st0" d="M269.8,23.6c-1.2-3.3-3.8-6-7.1-7.1c-1.2-0.4-2.5-0.7-3.9-0.7H251c-1.4,0-2.7,0.2-3.9,0.7
		c-3.3,1.2-6,3.8-7.1,7.1c-0.4,1.2-0.7,2.5-0.7,3.9v11.7c0,1.4,0.2,2.7,0.7,3.9c1.2,3.3,3.8,6,7.1,7.1c1.2,0.4,2.5,0.7,3.9,0.7h11.7
		c2.2,0,3.9-1.7,3.9-3.9c0-2.2-1.7-3.9-3.9-3.9c-0.2,0-0.5,0-0.7,0.1c0,0,0,0,0-0.1h-11c-2.2,0-3.9-1.7-3.9-3.9h11.7
		c1.4,0,2.7-0.2,3.9-0.7c0,0,0,0,0,0c3.3-1.2,6-3.8,7.1-7.1c0.4-1.2,0.7-2.5,0.7-3.9C270.5,26.1,270.3,24.8,269.8,23.6z M259.7,31.3
		C259.7,31.3,259.7,31.4,259.7,31.3l-8.6,0.1c-1.9,0-3.5-1.4-3.8-3.3c0,0,0,0,0,0c0,0,0,0,0,0v-0.7c0-2.2,1.7-3.9,3.9-3.9h7.8
		c2.2,0,3.9,1.7,3.9,3.9C262.7,29.4,261.4,30.9,259.7,31.3z"/>
	<path id="XMLID_142_" class="st0" d="M229.8,0.2c-2.2,0-3.9,1.7-3.9,3.9v12.4c-1.2-0.4-2.5-0.7-3.9-0.7h-7.8
		c-1.4,0-2.7,0.2-3.9,0.7c-3.3,1.2-6,3.8-7.1,7.1c-0.4,1.2-0.7,2.5-0.7,3.9v11.7c0,1.4,0.2,2.7,0.7,3.9c1.2,3.3,3.8,6,7.1,7.1
		c1.2,0.4,2.5,0.7,3.9,0.7h7.8c1.4,0,2.7-0.2,3.9-0.7c3.3-1.2,6-3.8,7.1-7.1c0.4-1.2,0.7-2.5,0.7-3.9V4.1
		C233.7,1.9,232,0.2,229.8,0.2z M225.9,39.2c0,2.2-1.7,3.9-3.9,3.9h-7.8c-2.2,0-3.9-1.7-3.9-3.9V27.5c0-2.2,1.7-3.9,3.9-3.9h7.8
		c2.2,0,3.9,1.7,3.9,3.9V39.2z"/>
	<path id="XMLID_139_" class="st0" d="M196.3,23.6c-1.2-3.3-3.8-6-7.1-7.1c-1.2-0.4-2.5-0.7-3.9-0.7h-7.8c-1.4,0-2.7,0.2-3.9,0.7
		c-3.3,1.2-6,3.8-7.1,7.1c-0.4,1.2-0.7,2.5-0.7,3.9v11.7c0,1.4,0.2,2.7,0.7,3.9c1.2,3.3,3.8,6,7.1,7.1c1.2,0.4,2.5,0.7,3.9,0.7h7.8
		c1.4,0,2.7-0.2,3.9-0.7c3.3-1.2,6-3.8,7.1-7.1c0.4-1.2,0.7-2.5,0.7-3.9V27.5C197,26.1,196.7,24.8,196.3,23.6z M189.2,39.2
		c0,2.2-1.7,3.9-3.9,3.9h-7.8c-2.2,0-3.9-1.7-3.9-3.9V27.5c0-2.2,1.7-3.9,3.9-3.9h7.8c2.2,0,3.9,1.7,3.9,3.9V39.2z"/>
	<path id="XMLID_138_" class="st0" d="M160.2,47c0,2.2-1.7,3.9-3.9,3.9h-15.6c-1.4,0-2.7-0.2-3.9-0.7c-3.3-1.2-6-3.8-7.1-7.1
		c-0.4-1.2-0.7-2.5-0.7-3.9V27.5c0-1.4,0.2-2.7,0.7-3.9c1.2-3.3,3.8-6,7.1-7.1c1.2-0.4,2.5-0.7,3.9-0.7h15.6c2.2,0,3.9,1.7,3.9,3.9
		c0,2.2-1.7,3.9-3.9,3.9h-15.6c-2.2,0-3.9,1.7-3.9,3.9v11.7c0,2.2,1.7,3.9,3.9,3.9h15.6C158.4,43.1,160.2,44.8,160.2,47z"/>
	<path id="XMLID_149_" class="st0" d="M84.2,27.5V47c0,2.2-1.7,3.9-3.9,3.9c-2.2,0-3.9-1.7-3.9-3.9V27.5c0-2.2-1.7-3.9-3.9-3.9h-7.8
		c-2.2,0-3.9,1.7-3.9,3.9V47c0,2.2-1.7,3.9-3.9,3.9c-2.2,0-3.9-1.7-3.9-3.9V27.5c0-2.2-1.7-3.9-3.9-3.9h-7.8c-2.2,0-3.9,1.7-3.9,3.9
		V47c0,2.2-1.7,3.9-3.9,3.9c-2.2,0-3.9-1.7-3.9-3.9V27.5c0-1.4,0.2-2.7,0.7-3.9c1.2-3.3,3.8-6,7.1-7.1c1.2-0.4,2.5-0.7,3.9-0.7h7.8
		c1.4,0,2.7,0.2,3.9,0.7c1.5,0.5,2.8,1.3,3.9,2.3c1.1-1,2.4-1.8,3.9-2.3c1.2-0.4,2.5-0.7,3.9-0.7h7.8c1.4,0,2.7,0.2,3.9,0.7
		c3.3,1.2,6,3.8,7.1,7.1C84,24.8,84.2,26.1,84.2,27.5z"/>
	<path id="XMLID_137_" class="st0" d="M97.6,19.7V47c0,2.2-1.7,3.9-3.9,3.9c-2.2,0-3.9-1.7-3.9-3.9V19.7c0-2.2,1.7-3.9,3.9-3.9
		C95.9,15.8,97.6,17.5,97.6,19.7z"/>
	<path id="XMLID_107_" class="st1" d="M110.3,51.6L124,16.5c0.4-1-0.1-2.1-1.1-2.5l0,0c-1-0.4-2.1,0.1-2.5,1.1l-13.7,35.1
		c-0.4,1,0.1,2.1,1.1,2.5l0,0C108.8,53.1,109.9,52.6,110.3,51.6z"/>
	<g id="XMLID_104_">
		<path id="XMLID_106_" class="st1" d="M3.3,34.8l17.2-17.2c0.8-0.8,0.8-2,0-2.7l0,0c-0.8-0.8-2-0.8-2.7,0L0.6,32.1
			c-0.8,0.8-0.8,2,0,2.7l0,0C1.3,35.6,2.6,35.6,3.3,34.8z"/>
		<path id="XMLID_105_" class="st1" d="M3.3,32.2l17.2,17.2c0.8,0.8,0.8,2,0,2.7l0,0c-0.8,0.8-2,0.8-2.7,0L0.6,35
			c-0.8-0.8-0.8-2,0-2.7l0,0C1.3,31.5,2.6,31.5,3.3,32.2z"/>
	</g>
	<g id="XMLID_102_">
		<path id="XMLID_108_" class="st1" d="M296.7,34.8l-17.2-17.2c-0.8-0.8-0.8-2,0-2.7l0,0c0.8-0.8,2-0.8,2.7,0l17.2,17.2
			c0.8,0.8,0.8,2,0,2.7l0,0C298.7,35.6,297.4,35.6,296.7,34.8z"/>
		<path id="XMLID_103_" class="st1" d="M296.7,32.2l-17.2,17.2c-0.8,0.8-0.8,2,0,2.7l0,0c0.8,0.8,2,0.8,2.7,0L299.4,35
			c0.8-0.8,0.8-2,0-2.7l0,0C298.7,31.5,297.4,31.5,296.7,32.2z"/>
	</g>
	<circle id="XMLID_98_" class="st1" cx="93.7" cy="4.1" r="3.9"/>
</g>
</svg>
