<?xml version="1.0" encoding="utf-8"?>
<!-- Generator: Adobe Illustrator 19.0.0, SVG Export Plug-In . SVG Version: 6.00 Build 0)  -->
<svg version="1.1" id="Camada_1" xmlns="http://www.w3.org/2000/svg" xmlns:xlink="http://www.w3.org/1999/xlink" x="0px" y="0px"
	 viewBox="8 -137 315 326" style="enable-background:new 8 -137 315 326;" xml:space="preserve">
<style type="text/css">
	.st0{fill:none;stroke:#E9ECEE;stroke-width:3;stroke-linecap:round;stroke-linejoin:round;stroke-dasharray:5,10;}
	.st1{fill:#2965F1;}
	.st2{fill:#FFFFFF;}
	.st3{fill:#E44D26;}
	.st4{fill:#F16529;}
	.st5{fill:#EBEBEB;}
	.st6{fill:#264DE4;}
	.st7{fill:#007DA3;}
	.st8{fill:#CC6699;}
	.st9{fill:#83CD29;}
</style>
<circle class="st0" cx="161.6" cy="22.8" r="126.1"/>
<path class="st1" d="M12.1-27.9V4h31.9H76v-31.9v-31.9H44.1H12.1V-27.9z"/>
<path class="st2" d="M63.6-30.5c1.6,0.4,2.9,1.1,4,2.3c0.6,0.6,1.5,1.8,1.5,2c0,0.1-2.8,1.9-4.4,3c-0.1,0-0.3-0.2-0.6-0.6
	c-0.8-1.2-1.7-1.7-3-1.8c-1.9-0.1-3.2,0.9-3.2,2.6c0,0.5,0.1,0.8,0.3,1.2c0.4,0.9,1.2,1.4,3.7,2.5c4.6,2,6.5,3.3,7.7,5.1
	c1.4,2.1,1.7,5.3,0.7,7.8c-1,2.7-3.5,4.5-7.1,5.1c-1.1,0.2-3.7,0.2-4.9-0.1c-2.6-0.5-5-1.7-6.5-3.4c-0.6-0.6-1.7-2.3-1.7-2.5
	c0,0,0.3-0.2,0.6-0.4c0.3-0.2,1.4-0.8,2.4-1.4l1.8-1.1l0.4,0.6c0.5,0.8,1.7,1.9,2.4,2.3c2,1.1,4.8,0.9,6.2-0.3
	c0.6-0.5,0.8-1.1,0.8-1.9c0-0.7-0.1-1.1-0.5-1.6c-0.5-0.7-1.5-1.3-4.4-2.6c-3.3-1.4-4.7-2.3-6-3.7c-0.8-0.8-1.5-2.1-1.8-3.2
	c-0.2-0.9-0.3-3.2-0.1-4.1c0.7-3.2,3.1-5.4,6.5-6.1C59.9-30.8,62.5-30.8,63.6-30.5z"/>
<path class="st2" d="M48.6-27.8l0,2.6h-4.2h-4.2v11.8v11.8h-2.9h-2.9v-11.8v-11.8h-4.2h-4.2v-2.6c0-1.4,0-2.6,0.1-2.6
	c0,0,5.1-0.1,11.2-0.1l11.2,0L48.6-27.8z"/>
<g>
	<path class="st3" d="M143.6-73.9l-5.2-58.1h57L190.2-74l-23.3,6.5"/>
	<path class="st4" d="M166.9-72.4v-54.9h23.3l-4.4,49.6"/>
	<path class="st5" d="M149-120.2h17.9v7.1h-10.1l0.7,7.3h9.4v7.1h-15.9 M151.2-95.1h7.2l0.5,5.7l8,2.1v7.4l-14.6-4.1"/>
	<path class="st2" d="M184.7-120.2h-17.9v7.1h17.2 M183.4-105.8h-16.6v7.1h8.8l-0.8,9.3l-8,2.1v7.4l14.6-4"/>
</g>
<g id="g3013" transform="translate(119,276.3622)">
	<polygon id="polygon2989" class="st6" points="194.5,-332.9 189.3,-275.3 166.2,-268.9 143.2,-275.3 138,-332.9 	"/>
	<polygon id="polygon2991" class="st1" points="184.9,-279 189.3,-328.2 166.3,-328.2 166.3,-273.8 	"/>
	<polygon id="polygon2993" class="st5" points="149.8,-306.8 150.4,-299.7 166.3,-299.7 166.3,-306.8 	"/>
	<polygon id="polygon2995" class="st5" points="166.3,-321.1 166.2,-321.1 148.5,-321.1 149.2,-314 166.3,-314 	"/>
	<polygon id="polygon2997" class="st5" points="166.3,-281.1 166.3,-288.5 166.2,-288.5 158.4,-290.6 157.9,-296.2 154,-296.2 
		150.8,-296.2 151.7,-285.1 166.2,-281.1 	"/>
	<polygon id="polygon3005" class="st2" points="174.9,-299.7 174.1,-290.6 166.2,-288.5 166.2,-281.1 180.7,-285.1 180.8,-286.3 
		182.5,-304.9 182.6,-306.8 183.9,-321.1 166.2,-321.1 166.2,-314 176.2,-314 175.5,-306.8 166.2,-306.8 166.2,-299.7 	"/>
</g>
<circle class="st7" cx="55.3" cy="73" r="28.5"/>
<path class="st2" d="M69.2,66.2c-0.5-0.2-0.9-0.3-1.4-0.4c0.1-0.3,0.1-0.6,0.2-1c1.1-5.1,0.4-9.2-2-10.6c-2.3-1.3-5.9,0.1-9.7,3.3
	c-0.4,0.3-0.7,0.7-1.1,1c-0.2-0.2-0.5-0.4-0.7-0.7c-3.9-3.5-7.8-4.9-10.2-3.6c-2.3,1.3-2.9,5.2-2,10c0.1,0.5,0.2,1,0.3,1.4
	c-0.6,0.2-1.1,0.3-1.6,0.5c-4.6,1.6-7.9,4.1-7.9,6.7c0,2.7,3.5,5.4,8.3,7c0.4,0.1,0.8,0.3,1.2,0.4c-0.1,0.5-0.2,1-0.3,1.5
	c-0.9,4.8-0.2,8.6,2.1,9.9c2.3,1.3,6.2,0,10-3.4c0.3-0.3,0.6-0.5,0.9-0.8c0.4,0.4,0.8,0.7,1.2,1.1c3.7,3.2,7.3,4.4,9.6,3.1
	c2.3-1.3,3.1-5.4,2.1-10.4c-0.1-0.4-0.2-0.8-0.3-1.2c0.3-0.1,0.5-0.2,0.8-0.2c5-1.6,8.6-4.3,8.6-7C77.3,70.3,73.9,67.8,69.2,66.2
	L69.2,66.2z M57.6,58.9c3.2-2.8,6.2-3.9,7.5-3.1c1.5,0.8,2,4.2,1.1,8.6c-0.1,0.3-0.1,0.6-0.2,0.9c-1.9-0.4-3.8-0.7-5.8-0.9
	c-1.1-1.6-2.3-3.1-3.7-4.6C56.9,59.5,57.2,59.2,57.6,58.9z M46.4,75.1c0.4,0.8,0.8,1.5,1.2,2.2c0.4,0.7,0.9,1.5,1.4,2.2
	c-1.3-0.1-2.7-0.4-4-0.6C45.4,77.7,45.8,76.5,46.4,75.1L46.4,75.1z M46.4,70.8c-0.5-1.3-1-2.5-1.4-3.7c1.2-0.3,2.6-0.5,3.9-0.7
	c-0.5,0.7-0.9,1.4-1.3,2.2C47.2,69.3,46.8,70,46.4,70.8L46.4,70.8z M47.4,73c0.6-1.2,1.2-2.3,1.8-3.5c0.7-1.1,1.4-2.3,2.1-3.3
	c1.3-0.1,2.6-0.1,3.9-0.1c1.3,0,2.7,0.1,3.9,0.1c0.7,1.1,1.4,2.2,2.1,3.3c0.7,1.1,1.3,2.3,1.9,3.5c-0.6,1.2-1.2,2.4-1.9,3.5
	c-0.7,1.1-1.3,2.3-2.1,3.4c-1.3,0.1-2.6,0.1-4,0.1s-2.7,0-3.9-0.1c-0.7-1.1-1.5-2.2-2.1-3.4C48.6,75.3,47.9,74.2,47.4,73L47.4,73z
	 M62.9,77.4c0.4-0.8,0.9-1.5,1.3-2.3c0.6,1.2,1,2.5,1.5,3.8c-1.3,0.3-2.7,0.5-4,0.7C62,78.9,62.5,78.1,62.9,77.4L62.9,77.4z
	 M64.1,70.8c-0.4-0.8-0.8-1.5-1.2-2.3c-0.4-0.7-0.9-1.5-1.3-2.2c1.4,0.2,2.7,0.4,3.9,0.7C65.1,68.3,64.7,69.6,64.1,70.8z M55.3,61.1
	c0.9,1,1.8,2,2.5,3.1c-1.7-0.1-3.4-0.1-5.1,0C53.5,63.1,54.4,62.1,55.3,61.1z M45.3,55.9c1.4-0.8,4.7,0.4,8,3.4
	c0.2,0.2,0.4,0.4,0.7,0.6c-1.3,1.4-2.6,3-3.7,4.6c-1.9,0.2-3.9,0.5-5.8,0.9c-0.1-0.4-0.2-0.9-0.3-1.3C43.4,59.8,43.9,56.6,45.3,55.9
	L45.3,55.9z M43.2,78.5c-0.4-0.1-0.7-0.2-1.1-0.3c-1.8-0.6-3.9-1.5-5.4-2.7c-0.9-0.6-1.5-1.5-1.6-2.6c0-1.6,2.7-3.6,6.6-5
	c0.5-0.2,1-0.3,1.5-0.5c0.6,1.9,1.3,3.7,2.1,5.5C44.5,74.8,43.8,76.6,43.2,78.5z M53.2,86.9c-1.4,1.3-3.1,2.3-4.8,3
	c-1,0.5-2.1,0.5-3,0.1c-1.4-0.8-1.9-3.8-1.2-7.9c0.1-0.5,0.2-1,0.3-1.4c1.9,0.4,3.9,0.7,5.8,0.8c1.1,1.6,2.4,3.1,3.7,4.6
	C53.8,86.4,53.5,86.7,53.2,86.9L53.2,86.9z M55.3,84.9c-0.9-0.9-1.8-2-2.6-3.1c0.8,0,1.7,0.1,2.5,0.1c0.9,0,1.8,0,2.6-0.1
	C57.1,82.8,56.2,83.9,55.3,84.9z M66.6,87.4c-0.1,1-0.6,2-1.4,2.7c-1.4,0.8-4.3-0.2-7.4-2.9c-0.4-0.3-0.7-0.6-1.1-1
	c1.3-1.5,2.5-3,3.6-4.6c2-0.2,3.9-0.5,5.9-0.9c0.1,0.4,0.2,0.7,0.2,1C66.8,83.6,66.8,85.5,66.6,87.4L66.6,87.4z M68.1,78.2
	c-0.2,0.1-0.5,0.2-0.7,0.2c-0.6-1.9-1.3-3.7-2.2-5.5c0.8-1.8,1.5-3.6,2.1-5.4c0.4,0.1,0.9,0.3,1.3,0.4c4,1.4,6.8,3.4,6.8,5
	C75.4,74.6,72.4,76.8,68.1,78.2z M55.3,69c2.2,0,3.9,1.8,3.9,3.9s-1.8,3.9-3.9,3.9c-2.2,0-3.9-1.8-3.9-3.9
	C51.3,70.8,53.1,69,55.3,69"/>
<path class="st8" d="M166.5,124.7c15.7,0,28.4,12.7,28.4,28.4s-12.7,28.4-28.4,28.4s-28.4-12.7-28.4-28.4S150.8,124.7,166.5,124.7
	 M160.8,162.6c0.5,1.5,0.4,3,0,4.3c0,0.1-0.1,0.3-0.2,0.5c-0.1,0-0.1,0.2-0.2,0.3c-0.3,0.7-0.8,1.3-1.3,1.9c-1.6,1.8-4,2.5-4.9,1.9
	c-1.1-0.6-0.5-3.2,1.4-5.2c2-2.2,5-3.6,5-3.6l0,0L160.8,162.6 M184.3,136.9c-1.3-5.1-9.7-6.7-17.6-3.9c-4.7,1.7-9.8,4.3-13.5,7.7
	c-4.4,4.1-5.1,7.7-4.8,9.1c1,5.2,8.2,8.7,11.1,11.2v0c-0.9,0.4-7.2,3.6-8.8,6.9c-1.5,3.5,0.3,6,1.4,6.3c3.8,1,7.7-0.8,9.7-3.9
	c2-3,1.8-6.8,1-8.7c1.2-0.3,2.6-0.4,4.4-0.2c5,0.6,6,3.7,5.8,5c-0.2,1.3-1.2,2-1.6,2.2c-0.3,0.2-0.5,0.3-0.4,0.5
	c0,0.2,0.2,0.2,0.5,0.2c0.4-0.1,2.6-1.1,2.7-3.5c0.1-3.1-2.8-6.5-8-6.4c-2.1,0.1-3.5,0.3-4.4,0.6l-0.2-0.3
	c-3.2-3.4-9.1-5.8-8.9-10.4c0.1-1.7,0.7-6.1,11.4-11.4c8.8-4.4,15.8-3.2,17-0.5c1.7,3.8-3.8,10.9-12.9,11.9c-3.5,0.4-5.3-1-5.8-1.5
	c-0.5-0.5-0.5-0.6-0.7-0.5c-0.3,0.2-0.1,0.7,0,0.9c0.3,0.7,1.4,1.9,3.3,2.6c1.7,0.5,5.8,0.9,10.7-1.1
	C181.3,147.8,185.6,141.9,184.3,136.9z"/>
<path class="st9" d="M298.5,57.2L275.8,44c-1.4-0.8-3.3-0.8-4.7,0l-22.9,13.2c-1.5,0.8-2.5,2.4-2.5,4.1v26.3c0,1.7,1.1,3.3,2.5,4.2
	l6,3.4c2.9,1.4,3.9,1.4,5.2,1.4c4.3,0,6.7-2.6,6.7-7.1V63.6c0-0.4-0.2-0.9-0.6-0.9h-2.9c-0.4,0-1.2,0.5-1.2,0.9v25.9
	c0,2-1.8,4-5.2,2.3l-6.3-3.6c-0.2-0.1-0.4-0.4-0.4-0.6V61.4c0-0.2,0.3-0.5,0.5-0.6l22.8-13.1c0.2-0.1,0.5-0.1,0.7,0l22.5,13.1
	c0.2,0.1,0.1,0.4,0.1,0.6v26.3c0,0.3,0.1,0.5-0.1,0.6l-22.6,13.1c-0.2,0.1-0.4,0.1-0.6,0l-5.8-3.5c-0.2-0.1-0.4-0.1-0.6,0
	c-1.6,0.9-1.9,1-3.4,1.6c-0.4,0.1-0.9,0.4,0.2,1l7.6,4.5c0.7,0.4,1.6,0.6,2.4,0.6c0.8,0,1.7-0.2,2.4-0.6l22.5-13.1
	c1.5-0.9,2.2-2.4,2.2-4.2V61.4C300.7,59.6,300,58.1,298.5,57.2z M280.6,83.5c-6,0-7.4-1.7-7.8-4.7c-0.1-0.3-0.3-0.7-0.7-0.7h-2.9
	c-0.4,0-0.7,0.4-0.7,0.8c0,3.8,2.1,8.5,12,8.5c7.2,0,11.3-2.8,11.3-7.8c0-4.9-3.3-6.2-10.3-7.1c-7.1-0.9-7.8-1.4-7.8-3.1
	c0-1.4,0.6-3.2,5.8-3.2c4.7,0,6.4,1,7.1,4.2c0.1,0.3,0.3,0.5,0.6,0.5h3c0.2,0,0.4-0.1,0.5-0.2c0.1-0.1,0.2-0.3,0.2-0.5
	c-0.5-5.4-4.1-8-11.4-8c-6.5,0-10.4,2.7-10.4,7.3c0,5,3.9,6.4,10.1,7c7.5,0.7,8,1.8,8,3.3C287.4,82.4,285.4,83.5,280.6,83.5z"/>
</svg>
